<?xml version="1.0" encoding="UTF-8"?><svg id="Layer_1" xmlns="http://www.w3.org/2000/svg" viewBox="0 0 31.27 31.41"><defs><style>.cls-1{fill:#c90018;}.cls-1,.cls-2{stroke-width:0px;}.cls-3{isolation:isolate;}</style></defs><g class="cls-3"><g class="cls-3"><path class="cls-2" d="m1.22,8.6H0L5.08,0h1.38l5.12,8.6h-1.2l-1.14-1.93H2.34l-1.12,1.93Zm1.62-2.8h5.9L5.77.76l-2.93,5.04Z"/><path class="cls-2" d="m22.21,2.45c0,.49-.03.92-.1,1.3-.07.38-.2.67-.41.88-.2.21-.45.36-.75.46-.3.1-.75.15-1.35.15h-6.02v3.36h-1.04V0h7.13c.94,0,1.6.17,1.98.52s.57.99.57,1.93Zm-1.08.05c0-.6-.11-1.02-.33-1.26-.22-.24-.64-.36-1.24-.36h-5.98v3.49h5.39c.86,0,1.44-.11,1.73-.32.29-.21.44-.73.44-1.55Z"/></g></g><polygon class="cls-1" points="25.13 3.74 18.93 14.94 25.25 4.03 27.86 4.24 19.92 15.94 28.33 4 25.13 3.74"/><polygon class="cls-1" points="10.85 31.41 17.05 20.21 10.73 31.13 8.12 30.92 16.06 19.22 7.65 31.15 10.85 31.41"/><polygon class="cls-1" points="31.27 24.54 20.08 18.33 30.99 24.66 30.77 27.27 19.08 19.31 31.01 27.74 31.27 24.54"/><g class="cls-3"><g class="cls-3"><path class="cls-2" d="m1.74,12.38l1.56-.04,1.79.04c.38,0,.67.12.89.37.22.25.35.53.39.85.04.32.07.61.08.87.01.26.02.54.02.84,0,.68-.03,1.2-.1,1.54-.07.34-.24.61-.53.81s-.76.3-1.41.3H1.92c-.46,0-.85-.08-1.16-.24-.31-.16-.5-.4-.56-.72-.06-.32-.1-.62-.12-.9s-.03-.57-.03-.86c0-.4,0-.71.01-.93s.05-.5.11-.85c.07-.34.23-.61.48-.8.26-.19.62-.28,1.09-.28Zm.32,4.99l1.17.03,1.22-.03c.41,0,.71-.05.9-.15.19-.1.31-.29.34-.57.04-.28.06-.54.07-.8s.02-.5.02-.74c0-.29,0-.57-.02-.85s-.05-.52-.11-.74c-.06-.22-.18-.37-.38-.45s-.45-.12-.77-.12l-1.22-.04-1.2.04c-.42,0-.74.05-.94.15-.2.1-.32.3-.35.59-.03.29-.05.56-.06.81-.01.25-.02.48-.02.71l.07,1.24c.03.36.15.6.36.72.21.12.51.19.9.19Z"/><path class="cls-2" d="m8.69,12.38l1.56-.04,1.79.04c.38,0,.67.12.89.37.22.25.35.53.39.85.04.32.07.61.08.87.01.26.02.54.02.84,0,.68-.03,1.2-.1,1.54-.07.34-.24.61-.53.81s-.76.3-1.41.3h-2.53c-.46,0-.85-.08-1.16-.24-.31-.16-.5-.4-.56-.72-.06-.32-.1-.62-.12-.9s-.03-.57-.03-.86c0-.4,0-.71.01-.93s.05-.5.11-.85c.07-.34.23-.61.48-.8.26-.19.62-.28,1.09-.28Zm.32,4.99l1.17.03,1.22-.03c.41,0,.71-.05.9-.15.19-.1.31-.29.34-.57.04-.28.06-.54.07-.8s.02-.5.02-.74c0-.29,0-.57-.02-.85s-.05-.52-.11-.74c-.06-.22-.18-.37-.38-.45s-.45-.12-.77-.12l-1.22-.04-1.2.04c-.42,0-.74.05-.94.15-.2.1-.32.3-.35.59-.03.29-.05.56-.06.81-.01.25-.02.48-.02.71l.07,1.24c.03.36.15.6.36.72.21.12.51.19.9.19Z"/><path class="cls-2" d="m14.7,14.17l2.29-1.78h.85v5.51h-.65v-4.99l-2.11,1.69-.38-.43Z"/></g></g></svg>