<?xml version="1.0" encoding="UTF-8"?><svg id="Layer_1" xmlns="http://www.w3.org/2000/svg" viewBox="0 0 352.75 352.3"><defs><style>.cls-1{fill:#bd1622;stroke-width:0px;}</style></defs><path class="cls-1" d="m206.77,110.73c23.95,14.98,29.57,21.6,39.24,46.26,5.64-.85,11.41-1.68,17.16-2.59,7.53-1.19,15.03-2.5,22.57-3.62,2.19-.33,3.02-1.14,3.39-3.48,2.57-16.5,17.89-28.55,33.91-26.9,17.82,1.83,30.39,15.99,29.68,33.43-.68,16.71-14.65,30.45-31.55,30.51-12.16.05-21.65-5.34-28.02-15.79-1.13-1.86-2.08-2.54-4.37-2.15-13.28,2.26-26.59,4.31-40.24,6.49.4,17.84-4.58,33.85-15.18,47.45,14.33,14.35,28.59,28.62,42.96,43.01,23.52-14.61,48.87-4.78,60.29,11.73,12.46,18.01,10,42.23-6.07,57.4-15.68,14.8-40.47,15.77-57.39,2.23-17.47-13.98-22.16-39.14-9.38-58.66-14.26-14.27-28.46-28.48-42.85-42.88-26.61,18.92-54.71,20.26-83.95,3.6-15.85,19.25-31.71,38.52-47.75,58,6.53,9.21,8.74,19.32,6.11,30.24-2,8.31-6.58,15.07-13.46,20.17-14.06,10.42-33.4,9.26-46.15-2.7-12.55-11.77-14.88-31-5.6-45.61,7.93-12.49,25.95-22.22,46.95-12.48,15.78-19.17,31.63-38.43,47.52-57.74-22.72-26.59-26.35-55.37-10.38-86.99-13.35-10-26.9-20.15-40.39-30.26-23.4,18.64-50.25,10.56-62.99-4.28-14.18-16.52-14.5-40.74-.51-57.5,13.95-16.71,37.8-20.66,56.68-9.53,16.74,9.87,28.51,33.34,16.58,58.59,13.33,9.98,26.72,20,40.38,30.22,18.78-18.65,41.24-25.89,67.58-21.16,3.76-11.25,7.47-22.36,11.18-33.46.16-.47.27-.97.48-1.42,3.09-6.81,3.89-11.99-2.92-18.53-10.86-10.42-10.28-27.85-1.06-39.88,9.02-11.77,25.12-15.75,38.76-9.57,13.35,6.05,21.03,20.65,18.29,34.79-2.98,15.42-15.3,26.09-30.96,26.52-2.48.07-3.37.8-4.1,3.06-4.69,14.47-9.56,28.88-14.43,43.46Zm-29.98,121.62c31.2-.53,56.09-25.76,55.71-56.47-.39-31.16-26.08-56.28-56.92-55.64-30.96.64-55.81,26.33-55.16,57.03.65,30.64,26.18,55.59,56.37,55.08Zm95.73,68.02c.02,15.3,12.72,28.05,27.86,27.99,15.54-.06,28.19-12.67,28.18-28.09-.01-15.27-12.63-27.9-27.91-27.93-15.54-.03-28.16,12.55-28.13,28.03ZM16.5,76.07c-.08,15.49,12.2,28.06,27.53,28.2,15.62.14,28.17-12.18,28.31-27.8.14-15.54-12.38-28.22-27.91-28.25-15.32-.03-27.86,12.47-27.94,27.85Zm24.04,240.31c.03,11.17,8.92,19.96,20.07,19.86,11.11-.1,19.93-9.07,19.82-20.18-.1-10.84-9.07-19.7-19.95-19.72-11.09-.01-19.97,8.91-19.94,20.04ZM208.58,32.2c0,8.98,6.93,15.95,15.84,15.95,8.97,0,15.93-6.91,15.96-15.83.02-8.94-6.89-15.9-15.85-15.96-8.91-.06-15.96,6.94-15.95,15.83Zm96.03,119.83c-.06,9,6.79,16.07,15.65,16.15,9,.08,16.05-6.76,16.15-15.64.1-8.97-6.73-16.01-15.66-16.15-8.94-.14-16.08,6.78-16.14,15.64Z"/></svg>