<?xml version="1.0" encoding="UTF-8"?><svg id="Layer_1" xmlns="http://www.w3.org/2000/svg" viewBox="0 0 253.72 253.6"><defs><style>.cls-1{fill:#bd1622;stroke-width:0px;}</style></defs><path class="cls-1" d="m126.86,187c-33.01-.1-59.05-25.08-60.66-58.03-1.5-30.82,22.96-59.05,53.73-62.23,7.97-.82,15.71-.17,23.35,2,4.39,1.25,6.25,3.92,5.2,7.19-.97,3.04-3.87,4.09-8.09,2.94-32.2-8.77-63.54,14.79-63.67,47.86-.08,19.83,12.21,38.35,30.5,45.99,18.99,7.93,40.34,3.8,54.71-10.66,10.43-10.5,15.15-23.24,14.62-38-.06-1.57-.15-3.69.75-4.61,1.3-1.34,3.48-2.5,5.29-2.51,2.63-.02,4.42,2.11,4.26,4.78-.44,7.06-.07,14.43-2.03,21.09-7.14,24.35-23.61,38.99-48.61,43.88-.86.17-1.74.26-2.61.28-2.25.04-4.49.01-6.74.01Z"/><path class="cls-1" d="m125.8,132.81c7.76-7.82,15.3-15.46,22.89-23.05,10.77-10.78,21.56-21.54,32.38-32.28,1.05-1.04,2.27-2.57,3.48-2.64,1.9-.11,4.53.25,5.6,1.49,1.07,1.24.8,3.81.7,5.78-.04.78-1.16,1.56-1.86,2.26-20.39,20.42-40.8,40.82-61.2,61.22-.61.61-1.29,1.13-2.16,1.88-9-9-17.9-17.92-26.81-26.83-1.41-1.41-2.87-2.78-4.23-4.25-2.38-2.59-2.47-5.55-.3-7.64,2.17-2.1,5.18-2.05,7.65.39,7.29,7.2,14.5,14.47,21.75,21.7.52.52,1.08,1.01,2.11,1.97Z"/></svg>