<?xml version="1.0" encoding="UTF-8"?><svg id="Layer_1" xmlns="http://www.w3.org/2000/svg" viewBox="0 0 253.72 253.6"><defs><style>.cls-1{stroke-width:0px;}</style></defs><path class="cls-1" d="m65.65,30.16c14.68,2.17,26.03-3.35,35.32-14.56,3.23-3.9,7.3-7.21,11.39-10.25,9.42-7.01,19.35-7.2,28.76-.17,5.37,4.01,10.39,8.66,14.86,13.66,7.1,7.94,15.6,11.58,26.19,11.24,6.35-.21,12.8-.25,19.07.61,14.66,2.01,21.62,9.99,22.29,24.91.3,6.61.22,13.24.26,19.87.04,7.5,2.72,13.76,8.08,19.11,5.66,5.63,11.4,11.29,16.28,17.57,7.54,9.68,7.3,19.86-.06,29.68-2.61,3.48-5.7,6.62-8.69,9.81-2.73,2.92-5.62,5.69-8.44,8.52-4.24,4.24-6.66,9.29-6.86,15.34-.09,2.75-.34,5.49-.4,8.23-.09,4.25.02,8.5-.13,12.75-.59,17.8-9.22,26.47-27.06,27.14-7.49.28-14.99.24-22.47.56-5.22.22-9.57,2.67-13.28,6.23-3.88,3.72-7.65,7.55-11.56,11.23-2.27,2.14-4.61,4.23-7.1,6.1-10.49,7.84-20.58,7.93-30.88-.26-5.26-4.18-10.13-8.93-14.69-13.88-6.47-7.02-14.23-10.15-23.69-9.94-6.36.14-12.8.27-19.09-.52-15.98-1.99-22.95-9.84-23.65-26.03-.27-6.24-.16-12.49-.18-18.74-.02-7.34-2.43-13.62-7.69-18.88-5.38-5.39-10.9-10.71-15.67-16.62-8.77-10.86-8.71-21.11-.13-32.06,3.22-4.11,6.77-8.11,10.77-11.44,9.61-8,13.76-17.94,12.88-30.37-.37-5.32-.12-10.77.55-16.07,1.85-14.68,9.7-21.84,24.51-22.72,3.49-.21,7-.03,10.5-.03Zm-25.24,156.36h.15c0,3.75-.21,7.51.04,11.24.68,9.98,4.4,13.89,14.35,14.76,5.71.5,11.5.79,17.22.49,13.38-.69,23.98,4.43,32.83,14.18,3.85,4.24,8.05,8.24,12.53,11.81,6.64,5.28,11.55,5.13,18.34.04,2.19-1.64,4.2-3.55,6.18-5.45,3.7-3.55,7.3-7.19,10.96-10.78,6.67-6.55,14.76-9.54,24.05-9.66,7.49-.1,15.01-.09,22.47-.72,8.4-.72,12.12-4.54,12.8-12.9.55-6.71.79-13.48.64-20.22-.25-11.77,4.09-21.35,12.58-29.33,4.18-3.94,8.31-7.98,12.03-12.34,7.06-8.28,6.97-13.96-.29-22.16-4.47-5.05-9.29-9.79-14.07-14.56-7.04-7.02-10.14-15.5-10.2-25.35-.04-7.49-.12-15-.78-22.46-.64-7.29-4.07-10.88-11.36-11.75-6.3-.76-12.72-.95-19.06-.76-13.5.42-24.62-4.15-33.57-14.35-3.29-3.75-6.95-7.21-10.72-10.47-7.99-6.9-13.52-7-21.58-.15-4.84,4.12-9.33,8.69-13.75,13.27-7.24,7.51-15.93,11.43-26.38,11.47-3.75.01-7.5.03-11.25.17-4.23.17-8.52.14-12.68.81-6.66,1.07-9.82,4.1-10.62,10.75-.75,6.17-1.04,12.47-.81,18.68.52,13.9-4,25.38-14.61,34.58-4.04,3.5-7.73,7.5-11.12,11.64-5.79,7.08-5.74,12.38.02,19.53,2.81,3.49,5.84,6.92,9.27,9.78,12.29,10.24,17.74,23.19,16.36,39.07-.03.37,0,.75,0,1.12Z"/></svg>