<?xml version="1.0" encoding="UTF-8"?><svg id="Layer_1" xmlns="http://www.w3.org/2000/svg" viewBox="0 0 61.98 60.46"><defs><style>.cls-1{fill:#bd1622;stroke-width:0px;}</style></defs><path class="cls-1" d="m0,33.62c.11-2.27,1.34-4.32,3.85-5.43,2.54-1.12,4.93-.67,6.99,1.18,3.16,2.82,6.27,5.7,9.41,8.55.58.53,1.16,1.06,1.74,1.58.93.84,1.72.8,2.56-.15,5.74-6.48,11.47-12.97,17.21-19.45,5.63-6.36,11.26-12.72,16.89-19.08.67-.76,1.36-.98,2.14-.7.71.26,1.25.92,1.2,1.68-.03.41-.2.85-.42,1.2-6.27,10.13-12.56,20.26-18.85,30.38-4.94,7.95-9.88,15.91-14.82,23.86-1.02,1.65-2.42,2.77-4.35,3.11-2.31.4-4.24-.33-5.71-2.13-4.73-5.77-9.44-11.55-14.16-17.33-.73-.89-1.46-1.78-2.18-2.68C.51,37.01,0,35.64,0,33.62Z"/></svg>