<?xml version="1.0" encoding="UTF-8"?><svg id="Layer_1" xmlns="http://www.w3.org/2000/svg" viewBox="0 0 179.32 193"><defs><style>.cls-1{fill:#bd1622;stroke-width:0px;}</style></defs><path class="cls-1" d="m142.8,94.41c-9.51,0-18.64.26-27.74-.24-1.57-.09-3.5-3.15-4.36-5.22-3.17-7.65-3.02-7.71-11.06-7.72-7.33,0-14.66.21-21.98-.07-4.58-.18-6.99,1.57-8.38,5.94-2.38,7.48-2.58,7.42-10.52,7.42-7.29,0-14.57,0-22.59,0,.63-2.04.83-3.3,1.38-4.4,6-12.08,12.14-24.09,18.05-36.21,1.45-2.97,3.32-4.07,6.59-4.05,18.32.12,36.64-.02,54.96.18,1.96.02,4.89,1.16,5.68,2.66,6.81,12.97,13.24,26.14,19.75,39.26.2.4.1.95.22,2.46Z"/><path class="cls-1" d="m89.95.05c8.82,0,17.65.1,26.47-.05,3.59-.06,5.08,1.15,5.02,4.89-.16,10.82-.15,21.65,0,32.47.05,3.58-1.1,5.11-4.85,5.09-17.98-.11-35.97-.09-53.95-.01-3.35.01-4.8-1.14-4.76-4.65.14-10.99.16-21.98-.01-32.97C57.82.99,59.46-.05,62.98,0c8.99.15,17.98.05,26.97.05Z"/><path class="cls-1" d="m162.73,139.64c-2.32,5.82-3.74,11.04-6.46,15.47-1.17,1.9-5.03,2.96-7.68,2.99-24.66.22-49.32.13-73.98.13-14.33,0-28.66-.16-42.98.08-4.94.09-7.83-1.72-9.34-6.33-1.28-3.9-2.83-7.71-4.55-12.34h144.99Z"/><path class="cls-1" d="m179.3,110.75c-.05-7.29-1.51-8.75-8.82-8.75-26.82-.01-53.64,0-80.46,0-27.32,0-54.64-.02-81.96.01-6.3,0-7.94,1.68-8.04,8.02-.06,4-.02,8-.01,11.99.02,8.88,1.49,10.33,10.57,10.33,49.81,0,99.62,0,149.42,0,3.33,0,6.66.03,9.99,0,7.37-.07,9.24-1.9,9.3-9.1.04-4.16.03-8.33,0-12.49Zm-162.73,11.42c-2.76,0-5-2.24-5-5s2.24-5,5-5,5,2.24,5,5-2.24,5-5,5Zm23.58,0c-2.76,0-5-2.24-5-5s2.24-5,5-5,5,2.24,5,5-2.24,5-5,5Zm74.46-1.32c-8.32.05-16.65.02-24.98.02-8.33,0-16.65.03-24.98-.01-2.69-.01-5.92.08-6.06-3.57-.15-4.05,3.24-4.02,6.11-4.03,16.65-.04,33.3-.03,49.95,0,2.7,0,5.93-.01,6.07,3.59.16,4.04-3.26,3.99-6.12,4.01Zm24.84,1.32c-2.76,0-5-2.24-5-5s2.24-5,5-5,5,2.24,5,5-2.24,5-5,5Zm23.58,0c-2.76,0-5-2.24-5-5s2.24-5,5-5,5,2.24,5,5-2.24,5-5,5Z"/><path class="cls-1" d="m89.57,192.64c-.6-1.89-1.95-4.24-1.43-4.78,3.21-3.32,1.25-5.3-1.05-7.89-3.39-3.8-2.59-9.44,1.52-12.2,1-.67,2.65-.36,4.01-.5.13,1.34.88,3.35.29,3.91-3.18,2.96-1.62,4.92.66,7.41,3.73,4.09,3.27,9.1-.74,12.22-.63.49-1.41.81-3.26,1.84Z"/><path class="cls-1" d="m61.22,192.8c-.52-2.16-1.71-4.41-1.11-5.12,2.74-3.2,1.13-5.09-1.09-7.56-3.51-3.9-2.92-9.2,1.24-12.16,1.04-.74,2.87-.39,4.34-.53.02,1.34.62,3.27-.04,3.92-2.84,2.8-1.59,4.63.62,7,3.78,4.04,3.52,8.89-.33,12.2-.72.62-1.63,1.02-3.64,2.24Z"/><path class="cls-1" d="m117.27,193c-.28-2.62-1.24-4.94-.5-5.8,2.27-2.64,1.33-4.17-.65-6.29-3.99-4.28-3.93-9.29.16-12.62,1.09-.89,3.13-.6,4.74-.85-.1,1.48.36,3.48-.42,4.33-2.42,2.63-1.16,4.22.71,6.3,4.07,4.51,4.05,8.54.17,12.25-.79.76-1.87,1.21-4.22,2.68Z"/></svg>