<?xml version="1.0" encoding="UTF-8"?><svg id="Layer_1" xmlns="http://www.w3.org/2000/svg" viewBox="0 0 685.65 512.48"><defs><style>.cls-1{fill:#aaaaaa;}</style></defs><path class="cls-1" d="m202.78,229.46l-81.1,68.1V.51h193.71c8.09,0,15.56.63,22.43,1.87-22.02,14.01-33.17,39.18-33.17,74.98v8.57c-3.22-1.42-7.22-2.47-11.99-3.17-1.45-.35-3.61-.54-6.49-.54h-83.33v147.22s-.04.04-.06.06v-.03Z"/><path class="cls-1" d="m400.38,0c-19.84,0-34.09,1.45-42.75,4.33-1.81.6-3.57,1.26-5.26,1.97-24.99,10.57-37.48,34.26-37.48,71.07v98.61h-.04v89.13c0,2.16-.19,3.98-.54,5.41-1.08,11.9-3.07,19.13-5.95,21.64-.97.97-2.19,1.81-3.7,2.52-4.05,1.93-10.03,2.9-17.94,2.9H121.67l-97.25,81.69s293.3.38,293.66,0c3.99,0,7.84-.18,11.52-.53,38.96-3.64,60.91-26.54,65.85-68.73.23-1.99.42-3.8.58-5.48.34-3.52.5-6.39.5-8.58v-66.54h165.07v-81.7h-115.32l-49.75,41.66v-89.13c.01-.06.03-.1.04-.15,2.16-12.25,11.36-18.4,27.6-18.4l139.7-.11L661.23.07l-260.85-.07Z"/><path class="cls-1" d="m682.83,463.63l-14.57,24.82-14.58-24.81-2.81-.02,16.15,27.47v20.83h2.41v-20.83l16.22-27.47h-2.82Zm-51.73,2.75c-2.09-1.84-4.98-2.76-8.66-2.76h-22.77v48.3h2.42v-45.95h20.35c6.26,0,9.39,2.78,9.39,8.33v7.01c0,.14-.05.51-.14,1.11-.69,4.4-3.45,6.6-8.28,6.6h-18.7c-1.47,0-2.21.47-2.21,1.41,0,.67.16,1.07.48,1.21l26.78,20.28h4.11l-27.36-20.56h17c3.21,0,5.8-.92,7.77-2.76,1.97-1.84,2.96-4.37,2.96-7.59v-6.48c0-3.59-1.04-6.31-3.14-8.15Zm-67.45-2.76h-8.62c-8.37,0-12.56,3.94-12.56,11.8v24.91c0,7.73,4.19,11.59,12.56,11.59h8.62c8.38,0,12.56-3.86,12.56-11.59v-24.91c0-7.86-4.18-11.8-12.56-11.8Zm10.15,36.54c0,6.28-3.34,9.42-10.01,9.42h-8.83c-6.72,0-10.07-3.14-10.07-9.42v-24.57c0-6.41,3.35-9.62,10.07-9.62h8.83c6.67,0,10.01,3.21,10.01,9.62v24.57Zm-80.87-34.19h14.21v45.95h2.42v-45.95h14.28v-2.35h-30.91v2.35Zm-44.57.34c-2.03,1.8-3.04,4.38-3.04,7.73v26.84c0,3.64,1.1,6.47,3.31,8.49,1.34,1.2,2.69,1.96,4.07,2.28.83.18,2.37.27,4.63.27h19.25v-2.34h-19.25c-2.4,0-4.14-.28-5.25-.83-2.9-1.43-4.34-4.09-4.34-7.96v-26.93c0-2.63.8-4.6,2.41-5.92,1.61-1.31,3.73-1.97,6.35-1.97h20.21v-2.35h-20.28c-3.36,0-6.05.9-8.07,2.69Zm-42.65-3.31c-.59,0-1.08.23-1.44.69-.23.19-.46.55-.69,1.11l-18.91,47.12h2.97s5.41-14.21,5.41-14.21h25.16l5.51,14.22h2.97s-18.97-47.13-18.97-47.13c-.37-1.2-1.04-1.8-2.01-1.8Zm-11.52,32.23l11.42-29.76,11.53,29.76h-22.95Zm-53.47-27.88c-1.52,1.93-2.28,3.96-2.28,6.07v38.5h2.42v-22.7h28.91v-2.34h-28.91v-13.06c0-2.5.89-4.47,2.69-5.91,1.61-1.29,3.7-1.94,6.28-1.94h20.07v-2.35h-20.42c-3.91,0-6.83,1.25-8.76,3.73Zm-61.41,40.64l-28.36-42.71c-.19-.32-.32-.55-.42-.69-.78-.97-1.42-1.45-1.93-1.45-.87,0-1.38.51-1.51,1.52v47.26h2.41v-44.46l28.45,42.98.35.4.7.89c.23.27.47.46.73.58.26.11.48.17.67.17.65,0,1.07-.46,1.25-1.38.05-.23.07-.95.07-2.14v-45.34h-2.41v44.37Zm-58.1-6.51c0,2.95-1.29,5.26-3.86,6.92-1.2.79-2.58,1.18-4.14,1.18h-12.56c-1.89,0-3.27-.19-4.14-.56-3.27-1.38-4.9-3.99-4.9-7.82v-26.99c0-2.77.9-4.87,2.69-6.3,1.61-1.29,3.82-1.94,6.62-1.94h20.84v-2.35h-21.11c-3.36,0-6.07.92-8.14,2.76-2.21,1.94-3.32,4.56-3.32,7.87v26.98c0,3.5,1.02,6.15,3.04,7.97,2.02,1.82,4.81,2.72,8.35,2.72h12.63c2.11,0,3.95-.48,5.52-1.45,3.26-2.02,4.9-5.15,4.9-9.38v-14.28h-2.42v14.67Zm-57.89,10.44h2.42v-48.3h-2.42v48.3Zm-49.76-45.61c-2.2,1.94-3.3,4.7-3.3,8.28v4.08c0,5.93,3.45,9.24,10.35,9.93.46.05,1.15.07,2.07.07h7.38c6.17,0,9.25,2.75,9.25,8.24v4.78c0,3.09-1.2,5.35-3.6,6.78-1.24.74-3.16,1.11-5.74,1.11h-19.71v2.34h19.71c1.93,0,3.43-.13,4.49-.41,1.34-.37,2.63-1.06,3.88-2.07,2.25-1.89,3.38-4.55,3.38-8v-4.83c0-3.41-1.07-6.01-3.2-7.8-2.14-1.8-4.96-2.69-8.46-2.69h-7.45c-1.93,0-3.17-.05-3.73-.14-1.1-.23-2.2-.76-3.31-1.59-1.93-1.53-2.9-3.58-2.9-6.17v-3.73c0-5.68,3.12-8.52,9.34-8.52h19.71v-2.35h-19.64c-3.62,0-6.46.9-8.52,2.69Zm-46.01-2.48c-6.12,1.01-9.18,4.6-9.18,10.76v26.71c0,5.93,2.9,9.4,8.7,10.42.78.13,1.49.2,2.14.2h20.28v-2.34h-20.1c-2.64,0-4.76-.76-6.35-2.29-1.59-1.52-2.39-3.6-2.39-6.23v-11.84h28.84l.07-2.34h-28.91v-12.3c0-4.86,2.37-7.68,7.12-8.47.56-.09,1.11-.14,1.66-.14h20.2v-2.35h-19.94c-.6,0-1.31.07-2.14.21Zm-38.09.93c-1.38-.76-3.2-1.14-5.45-1.14H0v48.3h23.87c3.5,0,6.21-1.07,8.14-3.21,1.94-2.13,2.9-4.95,2.9-8.45v-25.6c0-2.62-.48-4.62-1.45-6-1.28-1.84-2.62-3.14-4-3.9Zm3.04,35.61c0,5.08-2.3,8.08-6.9,9-.69.14-1.29.21-1.8.21H2.41v-43.61h21.46c3.27,0,5.77,1.38,7.52,4.15.74,1.16,1.11,2.66,1.11,4.5v25.75Z"/></svg>