<?xml version="1.0" encoding="UTF-8"?>
<svg id="Layer_1" xmlns="http://www.w3.org/2000/svg" version="1.1" viewBox="0 0 659.2 163.5">
  <!-- Generator: Adobe Illustrator 29.3.1, SVG Export Plug-In . SVG Version: 2.1.0 Build 151)  -->
  <defs>
    <style>
      .st0 {
        fill: #bd1622;
      }
    </style>
  </defs>
  <g>
    <path d="M124.3,65.3h10.8l17.3,32.1h-9.8l-3-5.7h-20.4l-3,5.7h-9.3l17.3-32.1ZM136.1,84.8l-6.6-12.7-6.6,12.7h13.2Z"/>
    <path d="M155.8,65.3h34v6.9h-25.7v5.6h24.3v6.6h-24.3v6.2h26.2v6.9h-34.5v-32.1Z"/>
    <path d="M196.2,65.3h23.5c10.5,0,13.6,2.8,13.6,10s-1.4,7.5-5.4,8.7v.2c4.4.7,5.4,2.1,5.4,7.7v5.6h-8.3v-4.3c0-4.2-.7-5.7-6.8-5.7h-13.8v10.1h-8.3v-32.1ZM218.9,80.5c4.7,0,6.2-.8,6.2-4.2s-1.4-4.2-6.2-4.2h-14.3v8.4h14.4Z"/>
    <path d="M238.7,81.4c0-13.4,3.6-16.7,21.3-16.7s21.4,3.3,21.4,16.7-3.6,16.7-21.4,16.7-21.3-3.3-21.3-16.7ZM260,91.1c11.6,0,12.9-1,12.9-9.7s-1.3-9.7-12.9-9.7-12.9.9-12.9,9.7,1.3,9.7,12.9,9.7Z"/>
    <path class="st0" d="M287.1,65.3h22.1c11.3,0,14.6,2.8,14.6,11.7s-3.3,11.7-14.6,11.7h-13.8v8.8h-8.3v-32.1ZM308.9,81.8c5.1,0,6.7-1,6.7-4.8s-1.6-4.8-6.7-4.8h-13.4v9.7h13.4Z"/>
    <path class="st0" d="M328,81.4c0-13.4,3.6-16.7,21.3-16.7s21.4,3.3,21.4,16.7-3.6,16.7-21.4,16.7-21.3-3.3-21.3-16.7ZM349.3,91.1c11.6,0,12.9-1,12.9-9.7s-1.3-9.7-12.9-9.7-12.9.9-12.9,9.7,1.3,9.7,12.9,9.7Z"/>
    <path class="st0" d="M376.5,65.3h8.4v25.2h23.4v7h-31.8v-32.1Z"/>
    <path class="st0" d="M412.8,65.3h8.4v32.1h-8.4v-32.1Z"/>
    <path class="st0" d="M427.9,65.3h13.1l12.7,24h0l12.7-24h12.8v32.1h-8.3v-24.5h0l-13,24.5h-8.8l-12.9-24.5h0v24.5h-8.3v-32.1Z"/>
    <path class="st0" d="M486,65.3h34v6.9h-25.7v5.6h24.3v6.6h-24.3v6.2h26.2v6.9h-34.5v-32.1Z"/>
    <path class="st0" d="M526.3,65.3h12.2l20.3,24.3h0v-24.3h8.2v32.1h-12l-20.5-24.5h0v24.5h-8.3v-32.1Z"/>
    <path class="st0" d="M586.1,72.3h-14.6v-7h37.6v7h-14.6v25.2h-8.4v-25.2Z"/>
    <path class="st0" d="M611.5,81.4c0-13.4,3.6-16.7,21.3-16.7s21.4,3.3,21.4,16.7-3.6,16.7-21.4,16.7-21.3-3.3-21.3-16.7ZM632.8,91.1c11.6,0,12.9-1,12.9-9.7s-1.3-9.7-12.9-9.7-12.9.9-12.9,9.7,1.3,9.7,12.9,9.7Z"/>
  </g>
  <polygon points="86 81.7 20.3 147.4 2.7 157.6 7.2 147.4 36.7 81.7 7.2 16 2.7 5.9 20.3 16 86 81.7"/>
</svg>