<?xml version="1.0" encoding="UTF-8"?><svg id="Layer_1" xmlns="http://www.w3.org/2000/svg" xmlns:xlink="http://www.w3.org/1999/xlink" viewBox="0 0 537.95 539.85"><defs><style>.cls-1{stroke:url(#linear-gradient-2);}.cls-1,.cls-2,.cls-3{fill:none;stroke-miterlimit:10;stroke-width:2px;}.cls-2{stroke:url(#linear-gradient-3);}.cls-3{stroke:url(#linear-gradient);}.cls-4{fill:#1d1d1b;stroke-width:0px;}</style><linearGradient id="linear-gradient" x1="501.72" y1="659.08" x2="165.27" y2="322.63" gradientTransform="translate(-38.09 719.91) rotate(4.68) scale(1 -1)" gradientUnits="userSpaceOnUse"><stop offset=".27" stop-color="#bd1622"/><stop offset=".29" stop-color="#bf1e2a"/><stop offset=".33" stop-color="#c6353f"/><stop offset=".37" stop-color="#d05a63"/><stop offset=".41" stop-color="#df8e94"/><stop offset=".46" stop-color="#f1cfd1"/><stop offset=".5" stop-color="#fff"/></linearGradient><linearGradient id="linear-gradient-2" x1="-1537.24" y1="670.55" x2="-1873.63" y2="334.16" gradientTransform="translate(-1369.55 -292.92) rotate(-175.32) scale(1 -1)" gradientUnits="userSpaceOnUse"><stop offset=".27" stop-color="#bd1622"/><stop offset=".29" stop-color="#bf1e2a"/><stop offset=".33" stop-color="#c6353f"/><stop offset=".37" stop-color="#d05a63"/><stop offset=".41" stop-color="#df8e94"/><stop offset=".46" stop-color="#f1cfd1"/><stop offset=".5" stop-color="#fff"/></linearGradient><linearGradient id="linear-gradient-3" x1="-597.59" y1="1637.72" x2="-934.04" y2="1301.27" gradientTransform="translate(-1182.1 964.97) rotate(94.68) scale(1 -1)" gradientUnits="userSpaceOnUse"><stop offset=".27" stop-color="#bd1622"/><stop offset=".29" stop-color="#bf1e2a"/><stop offset=".33" stop-color="#c6353f"/><stop offset=".37" stop-color="#d05a63"/><stop offset=".41" stop-color="#df8e94"/><stop offset=".46" stop-color="#f1cfd1"/><stop offset=".5" stop-color="#fff"/></linearGradient></defs><path class="cls-4" d="m21,147.9H0L87.4,0h23.8l88.1,147.9h-20.6l-19.5-33.2H40.3l-19.3,33.2Zm28-48.1h101.4L99.3,13.1l-50.3,86.7Z"/><path class="cls-4" d="m382.1,42.1c0,8.4-.6,15.9-1.8,22.4s-3.5,11.5-7,15.1c-3.5,3.5-7.8,6.2-13,7.9s-12.9,2.6-23.3,2.6h-103.5v57.9h-18V0h122.7c16.1,0,27.5,3,34,9,6.7,5.9,9.9,17,9.9,33.1Zm-18.6.9c0-10.3-1.9-17.6-5.8-21.7-3.8-4.1-10.9-6.2-21.3-6.2h-102.9v60.1h92.7c14.8,0,24.7-1.8,29.7-5.5,5.1-3.8,7.6-12.6,7.6-26.7Z"/><polygon class="cls-3" points="484.4 70 205.4 473.1 436.1 66 484.4 70"/><polygon class="cls-1" points="139.3 534.8 418.2 131.7 187.5 538.8 139.3 534.8"/><polygon class="cls-2" points="532.9 471.6 129.8 192.6 536.9 423.3 532.9 471.6"/><path class="cls-4" d="m30,213l26.9-.7,30.9.7c6.5,0,11.6,2.1,15.3,6.3,3.7,4.2,6,9.1,6.8,14.7.8,5.6,1.2,10.6,1.4,15,.2,4.5.3,9.3.3,14.4,0,11.8-.6,20.6-1.7,26.4-1.1,5.8-4.2,10.5-9.1,14s-13,5.2-24.2,5.2h-43.6c-8,0-14.6-1.4-20-4.2s-8.6-7-9.6-12.5-1.7-10.7-2.1-15.4c-.3-4.8-.5-9.8-.5-14.9,0-6.8.1-12.1.2-15.9.1-3.8.8-8.7,1.9-14.6,1.1-5.9,3.9-10.5,8.3-13.7,4.5-3.2,10.7-4.8,18.8-4.8Zm5.5,85.8l20.2.6,21.1-.6c7,0,12.2-.9,15.5-2.6,3.3-1.8,5.3-5,5.9-9.8.6-4.7,1-9.3,1.2-13.7s.3-8.7.3-12.7c0-5-.1-9.9-.4-14.6-.2-4.7-.9-8.9-1.9-12.7-1-3.7-3.2-6.3-6.5-7.7s-7.7-2.1-13.2-2.1l-20.9-.7-20.6.7c-7.3,0-12.7.9-16.2,2.6-3.5,1.7-5.5,5.1-6.1,10.1-.5,5-.9,9.6-1.1,13.9-.2,4.3-.3,8.3-.3,12.2l1.1,21.4c.6,6.1,2.7,10.3,6.3,12.4,3.7,2.2,8.9,3.3,15.6,3.3Z"/><path class="cls-4" d="m149.5,213l26.9-.7,30.9.7c6.5,0,11.6,2.1,15.3,6.3,3.7,4.2,6,9.1,6.8,14.7.8,5.6,1.2,10.6,1.4,15,.2,4.5.3,9.3.3,14.4,0,11.8-.6,20.6-1.7,26.4-1.1,5.8-4.2,10.5-9.1,14s-13,5.2-24.2,5.2h-43.6c-8,0-14.6-1.4-20-4.2s-8.6-7-9.6-12.5-1.7-10.7-2.1-15.4c-.3-4.8-.5-9.8-.5-14.9,0-6.8.1-12.1.2-15.9.1-3.8.8-8.7,1.9-14.6,1.1-5.9,3.9-10.5,8.3-13.7,4.5-3.2,10.8-4.8,18.8-4.8Zm5.6,85.8l20.2.6,21.1-.6c7,0,12.2-.9,15.5-2.6,3.3-1.8,5.3-5,5.9-9.8.6-4.7,1-9.3,1.2-13.7s.3-8.7.3-12.7c0-5-.1-9.9-.4-14.6-.2-4.7-.9-8.9-1.9-12.7-1-3.7-3.2-6.3-6.5-7.7s-7.7-2.1-13.2-2.1l-20.9-.7-20.6.7c-7.3,0-12.7.9-16.2,2.6-3.5,1.7-5.5,5.1-6.1,10.1-.5,5-.9,9.6-1.1,13.9-.2,4.3-.3,8.3-.3,12.2l1.1,21.4c.6,6.1,2.7,10.3,6.3,12.4,3.7,2.2,8.9,3.3,15.6,3.3Z"/><path class="cls-4" d="m253,243.8l39.5-30.7h14.6v95h-11.2v-85.9l-36.3,29.1-6.6-7.5Z"/></svg>