<?xml version="1.0" encoding="UTF-8"?>
<svg id="Layer_1" xmlns="http://www.w3.org/2000/svg" version="1.1" xmlns:xlink="http://www.w3.org/1999/xlink" viewBox="0 0 538 539.8">
  <!-- Generator: Adobe Illustrator 29.3.1, SVG Export Plug-In . SVG Version: 2.1.0 Build 151)  -->
  <defs>
    <style>
      .st0 {
        stroke: url(#linear-gradient2);
      }

      .st0, .st1, .st2, .st3 {
        display: none;
      }

      .st0, .st1, .st3 {
        fill: none;
        stroke-miterlimit: 10;
        stroke-width: 2px;
      }

      .st4 {
        opacity: .3;
      }

      .st1 {
        stroke: url(#linear-gradient);
      }

      .st5 {
        fill: url(#linear-gradient7);
      }

      .st6 {
        fill: url(#linear-gradient4);
      }

      .st7 {
        fill: url(#linear-gradient5);
      }

      .st2 {
        fill: #1d1d1b;
      }

      .st8 {
        fill: url(#linear-gradient3);
      }

      .st3 {
        stroke: url(#linear-gradient1);
      }

      .st9 {
        fill: url(#linear-gradient6);
      }

      .st10 {
        opacity: .5;
      }

      .st11 {
        opacity: .7;
      }
    </style>
    <linearGradient id="linear-gradient" x1="509.6" y1="74.8" x2="173.1" y2="411.3" gradientTransform="translate(14 -12.2) rotate(4.7)" gradientUnits="userSpaceOnUse">
      <stop offset=".3" stop-color="#bd1622"/>
      <stop offset=".3" stop-color="#bf1e2a"/>
      <stop offset=".3" stop-color="#c6353f"/>
      <stop offset=".4" stop-color="#d05a63"/>
      <stop offset=".4" stop-color="#df8e94"/>
      <stop offset=".5" stop-color="#f1cfd1"/>
      <stop offset=".5" stop-color="#fff"/>
    </linearGradient>
    <linearGradient id="linear-gradient1" x1="-2371.1" y1="-94.5" x2="-2707.6" y2="241.9" gradientTransform="translate(-2247.6 213.2) rotate(-175.3)" gradientUnits="userSpaceOnUse">
      <stop offset=".3" stop-color="#bd1622"/>
      <stop offset=".3" stop-color="#bf1e2a"/>
      <stop offset=".3" stop-color="#c6353f"/>
      <stop offset=".4" stop-color="#d05a63"/>
      <stop offset=".4" stop-color="#df8e94"/>
      <stop offset=".5" stop-color="#f1cfd1"/>
      <stop offset=".5" stop-color="#fff"/>
    </linearGradient>
    <linearGradient id="linear-gradient2" x1="-931.7" y1="-1403.6" x2="-1268.2" y2="-1067.1" gradientTransform="translate(-976 1317) rotate(94.7)" gradientUnits="userSpaceOnUse">
      <stop offset=".3" stop-color="#bd1622"/>
      <stop offset=".3" stop-color="#bf1e2a"/>
      <stop offset=".3" stop-color="#c6353f"/>
      <stop offset=".4" stop-color="#d05a63"/>
      <stop offset=".4" stop-color="#df8e94"/>
      <stop offset=".5" stop-color="#f1cfd1"/>
      <stop offset=".5" stop-color="#fff"/>
    </linearGradient>
    <linearGradient id="linear-gradient3" x1="2.4" y1="269.9" x2="262.6" y2="269.9" gradientUnits="userSpaceOnUse">
      <stop offset="0" stop-color="#bd1622"/>
      <stop offset="0" stop-color="#bf1e29"/>
      <stop offset=".2" stop-color="#cf5861"/>
      <stop offset=".3" stop-color="#de8b91"/>
      <stop offset=".5" stop-color="#eab5b8"/>
      <stop offset=".6" stop-color="#f3d5d7"/>
      <stop offset=".8" stop-color="#f9eced"/>
      <stop offset=".9" stop-color="#fdfafa"/>
      <stop offset="1" stop-color="#fff"/>
    </linearGradient>
    <linearGradient id="linear-gradient4" x1="70.6" x2="330.8" xlink:href="#linear-gradient3"/>
    <linearGradient id="linear-gradient5" x1="138.9" x2="399.1" xlink:href="#linear-gradient3"/>
    <linearGradient id="linear-gradient6" x1="207.1" x2="467.3" xlink:href="#linear-gradient3"/>
    <linearGradient id="linear-gradient7" x1="275.4" x2="535.6" xlink:href="#linear-gradient3"/>
  </defs>
  <path class="st2" d="M21,147.9H0L87.4,0h23.8l88.1,147.9h-20.6l-19.5-33.2H40.3l-19.3,33.2ZM49,99.8h101.4L99.3,13.1s-50.3,86.7-50.3,86.7Z"/>
  <path class="st2" d="M382.1,42.1c0,8.4-.6,15.9-1.8,22.4s-3.5,11.5-7,15.1c-3.5,3.5-7.8,6.2-13,7.9s-12.9,2.6-23.3,2.6h-103.5v57.9h-18V0h122.7c16.1,0,27.5,3,34,9,6.7,5.9,9.9,17,9.9,33.1ZM363.5,43c0-10.3-1.9-17.6-5.8-21.7-3.8-4.1-10.9-6.2-21.3-6.2h-102.9v60.1h92.7c14.8,0,24.7-1.8,29.7-5.5,5.1-3.8,7.6-12.6,7.6-26.7h0Z"/>
  <polygon class="st1" points="484.4 70 205.4 473.1 436.1 66 484.4 70"/>
  <polygon class="st3" points="139.3 534.8 418.2 131.7 187.5 538.8 139.3 534.8"/>
  <polygon class="st0" points="532.9 471.6 129.8 192.6 536.9 423.3 532.9 471.6"/>
  <path class="st2" d="M30,213l26.9-.7,30.9.7c6.5,0,11.6,2.1,15.3,6.3,3.7,4.2,6,9.1,6.8,14.7.8,5.6,1.2,10.6,1.4,15,.2,4.5.3,9.3.3,14.4,0,11.8-.6,20.6-1.7,26.4s-4.2,10.5-9.1,14-13,5.2-24.2,5.2h-43.6c-8,0-14.6-1.4-20-4.2s-8.6-7-9.6-12.5-1.7-10.7-2.1-15.4c-.3-4.8-.5-9.8-.5-14.9s.1-12.1.2-15.9c.1-3.8.8-8.7,1.9-14.6,1.1-5.9,3.9-10.5,8.3-13.7,4.5-3.2,10.7-4.8,18.8-4.8h0ZM35.5,298.8l20.2.6,21.1-.6c7,0,12.2-.9,15.5-2.6,3.3-1.8,5.3-5,5.9-9.8.6-4.7,1-9.3,1.2-13.7s.3-8.7.3-12.7,0-9.9-.4-14.6c-.2-4.7-.9-8.9-1.9-12.7-1-3.7-3.2-6.3-6.5-7.7s-7.7-2.1-13.2-2.1l-20.9-.7-20.6.7c-7.3,0-12.7.9-16.2,2.6-3.5,1.7-5.5,5.1-6.1,10.1-.5,5-.9,9.6-1.1,13.9-.2,4.3-.3,8.3-.3,12.2l1.1,21.4c.6,6.1,2.7,10.3,6.3,12.4,3.7,2.2,8.9,3.3,15.6,3.3h0Z"/>
  <path class="st2" d="M149.5,213l26.9-.7,30.9.7c6.5,0,11.6,2.1,15.3,6.3s6,9.1,6.8,14.7c.8,5.6,1.2,10.6,1.4,15,.2,4.5.3,9.3.3,14.4,0,11.8-.6,20.6-1.7,26.4-1.1,5.8-4.2,10.5-9.1,14s-13,5.2-24.2,5.2h-43.6c-8,0-14.6-1.4-20-4.2s-8.6-7-9.6-12.5-1.7-10.7-2.1-15.4c-.3-4.8-.5-9.8-.5-14.9s0-12.1.2-15.9c0-3.8.8-8.7,1.9-14.6,1.1-5.9,3.9-10.5,8.3-13.7,4.5-3.2,10.8-4.8,18.8-4.8ZM155.1,298.8l20.2.6,21.1-.6c7,0,12.2-.9,15.5-2.6,3.3-1.8,5.3-5,5.9-9.8.6-4.7,1-9.3,1.2-13.7s.3-8.7.3-12.7-.1-9.9-.4-14.6c-.2-4.7-.9-8.9-1.9-12.7-1-3.7-3.2-6.3-6.5-7.7s-7.7-2.1-13.2-2.1l-20.9-.7-20.6.7c-7.3,0-12.7.9-16.2,2.6-3.5,1.7-5.5,5.1-6.1,10.1-.5,5-.9,9.6-1.1,13.9-.2,4.3-.3,8.3-.3,12.2l1.1,21.4c.6,6.1,2.7,10.3,6.3,12.4,3.7,2.2,8.9,3.3,15.6,3.3h0Z"/>
  <path class="st2" d="M253,243.8l39.5-30.7h14.6v95h-11.2v-85.9l-36.3,29.1-6.6-7.5h0Z"/>
  <g>
    <g>
      <g class="st4">
        <path class="st8" d="M6.2,37.2l50.1,28.9,203.8,203.8L56.3,473.7l-50.1,28.9,12-26.8,92.1-205.2.3-.7-.3-.7L18.2,64l-12-26.8M2.4,33l14.2,31.7,92.1,205.2L16.6,475.1l-14.2,31.7,55-31.7,205.2-205.2L57.4,64.7,2.4,33h0Z"/>
      </g>
      <g class="st10">
        <path class="st6" d="M74.4,37.2l50.1,28.9,203.8,203.8-203.8,203.8-50.1,28.9,12-26.8,92.1-205.2.3-.7-.3-.7L86.5,64l-12-26.8M70.6,33l14.2,31.7,92.1,205.2-92.1,205.2-14.2,31.7,55-31.7,205.2-205.2L125.6,64.7l-55-31.7h0Z"/>
      </g>
      <g class="st11">
        <path class="st7" d="M142.7,37.2l50.1,28.9,203.8,203.8-203.8,203.8-50.1,28.9,12-26.8,92.1-205.2.3-.7-.3-.7-92.1-205.2-12-26.8M138.9,33l14.2,31.7,92.1,205.2-92.1,205.2-14.2,31.7,55-31.7,205.2-205.2L193.9,64.7l-55-31.7h0Z"/>
      </g>
      <path class="st9" d="M210.9,37.2l50.1,28.9,203.8,203.8-203.8,203.8-50.1,28.9,12-26.8,92.1-205.2.3-.7-.3-.7-92.1-205.2-12-26.8M207.1,33l14.2,31.7,92.1,205.2-92.1,205.2-14.2,31.7,55-31.7,205.2-205.2-205.2-205.2-55-31.7h0Z"/>
      <path class="st5" d="M279.2,37.2l50.1,28.9,203.8,203.8-203.8,203.8-50.1,28.9,12-26.8,92.1-205.2.3-.7-.3-.7-92.1-205.2-12-26.8M275.4,33l14.2,31.7,92.1,205.2-92.1,205.2-14.2,31.7,55-31.7,205.2-205.2-205.2-205.2-55-31.7h0Z"/>
    </g>
    <polygon points="535.6 269.9 330.4 475.1 275.4 506.8 289.6 475.1 381.7 269.9 289.6 64.7 275.4 33 330.4 64.7 535.6 269.9"/>
  </g>
</svg>