<?xml version="1.0" encoding="UTF-8"?><svg id="Layer_1" xmlns="http://www.w3.org/2000/svg" viewBox="0 0 659.25 163.47"><defs><style>.cls-1,.cls-2{stroke-width:0px;}.cls-2{fill:#bd1622;}</style></defs><path class="cls-2" d="m82.86,96.04l-27.64,66.02h17.76l4.45-11.85h6.12l-2.44,11.85h17.54l9.03-66.02h-24.82Zm3.59,42.44h-5.9c2.1-5.82,5.86-15.06,11.21-27.72-2.27,11-4.02,20.28-5.31,27.72Z"/><polygon class="cls-2" points="122.09 96.04 150.72 96.04 146.95 109.25 135.49 109.25 131.91 121.78 142.64 121.78 139.05 134.34 128.32 134.34 124.17 148.86 136.77 148.86 133 162.08 103.22 162.08 122.09 96.04"/><path class="cls-2" d="m192.47,101.78c-1.07-2.57-2.95-4.19-5.65-4.79-2.7-.64-8.09-.94-16.22-.94h-12.15l-18.87,66.02h17.2l8.51-29.78c2.35,0,3.68.43,4.02,1.28.3.86-.04,3.04-1.07,6.55l-6.25,21.95h15.92l5.01-17.41c1.5-5.31,2.31-8.56,2.35-9.76.04-1.2-.3-2.48-1.07-3.89-.77-1.41-2.74-2.57-5.9-3.38,3.89-.39,6.67-1.41,8.47-3.21,1.8-1.75,3.42-5.22,4.88-10.35,1.63-5.6,1.88-9.71.81-12.28Zm-16.3,10.65l-1.03,3.64c-.81,2.91-1.71,4.62-2.65,5.18-.9.51-2.35.77-4.28.77l4.19-14.68c2.01,0,3.25.34,3.85.98.56.64.51,2.01-.09,4.11Z"/><path class="cls-2" d="m237.57,101.61c-1.07-2.31-2.82-4.06-5.31-5.22-2.48-1.16-5.48-1.75-9.03-1.75s-7.15.64-10.31,1.84c-3.17,1.24-5.86,3-8.17,5.26-2.31,2.31-4.02,4.83-5.09,7.57-1.11,2.78-2.61,7.49-4.49,14.12l-3.25,11.3c-1.93,6.8-3.12,11.55-3.59,14.25-.43,2.74-.13,5.26.9,7.57,1.07,2.31,2.82,4.02,5.31,5.18,2.52,1.16,5.52,1.75,9.03,1.75,3.77,0,7.19-.6,10.35-1.84,3.12-1.24,5.86-2.99,8.17-5.26,2.27-2.27,3.98-4.79,5.09-7.57,1.07-2.74,2.57-7.44,4.49-14.08l3.21-11.3c1.97-6.8,3.17-11.55,3.59-14.29.47-2.74.17-5.22-.9-7.53Zm-16.9,11.42l-8.64,30.33c-1.11,3.89-2.01,6.33-2.61,7.36-.64,1.07-1.5,1.58-2.7,1.58s-1.75-.47-1.8-1.37c-.04-.9.47-3.25,1.58-7.1l8.81-30.81c.94-3.42,1.75-5.48,2.44-6.16.68-.68,1.45-1.03,2.35-1.03,1.07,0,1.67.43,1.75,1.28.09.86-.3,2.82-1.2,5.9Z"/><path class="cls-2" d="m281.64,100.32c-.86-1.37-2.44-2.44-4.75-3.17-2.31-.77-5.82-1.11-10.48-1.11h-17.29l-18.87,66.02h17.16l7.62-26.57h4.58c3.77,0,6.97-.51,9.58-1.54,2.61-1.07,4.62-2.52,6.08-4.45,1.41-1.93,2.7-5.01,3.94-9.24l1.63-5.73c1.2-4.15,1.84-7.19,1.93-9.16.13-1.97-.26-3.68-1.11-5.05Zm-14.68,12.45l-1.54,5.43c-.68,2.44-1.45,4.02-2.31,4.83-.81.77-2.01,1.16-3.59,1.16-.39,0-.77-.04-1.28-.04l4.83-16.81c2.22,0,3.59.34,4.11,1.03.51.68.43,2.14-.21,4.41Z"/><path class="cls-2" d="m326.82,101.61c-1.07-2.31-2.82-4.06-5.31-5.22-2.48-1.16-5.48-1.75-9.03-1.75s-7.19.64-10.31,1.84c-3.17,1.24-5.86,3-8.17,5.26-2.31,2.31-4.02,4.83-5.09,7.57-1.11,2.78-2.61,7.49-4.49,14.12l-3.25,11.3c-1.93,6.8-3.12,11.55-3.59,14.25-.43,2.74-.13,5.26.9,7.57,1.07,2.31,2.82,4.02,5.31,5.18,2.48,1.16,5.52,1.75,9.03,1.75,3.72,0,7.19-.6,10.31-1.84,3.17-1.24,5.9-2.99,8.17-5.26,2.31-2.27,4.02-4.79,5.13-7.57,1.07-2.74,2.57-7.44,4.49-14.08l3.21-11.3c1.97-6.8,3.17-11.55,3.59-14.29.47-2.74.17-5.22-.9-7.53Zm-16.9,11.42l-8.64,30.33c-1.11,3.89-2.01,6.33-2.61,7.36-.64,1.07-1.54,1.58-2.7,1.58s-1.75-.47-1.8-1.37c-.04-.9.47-3.25,1.58-7.1l8.77-30.81c.98-3.42,1.8-5.48,2.48-6.16.68-.68,1.45-1.03,2.35-1.03,1.07,0,1.63.43,1.75,1.28.09.86-.3,2.82-1.2,5.9Z"/><polygon class="cls-2" points="357.19 96.04 342.1 148.86 352.55 148.86 348.77 162.08 321.16 162.08 340.02 96.04 357.19 96.04"/><polygon class="cls-2" points="388.97 96.04 370.1 162.08 352.93 162.08 371.8 96.04 388.97 96.04"/><path class="cls-2" d="m448.85,96.04l-18.87,66.04h-15.01l12.72-44.58-18.71,44.58h-10.65l6.14-43.56-12.47,43.56h-15.01l18.87-66.04h22.22c-.48,3.97-1.14,8.65-1.98,14.04l-2.36,16.8,12.76-30.84h22.34Z"/><polygon class="cls-2" points="457.41 96.04 486.05 96.04 482.27 109.25 470.81 109.25 467.23 121.78 477.96 121.78 474.37 134.34 463.64 134.34 459.49 148.86 472.1 148.86 468.32 162.08 438.55 162.08 457.41 96.04"/><polygon class="cls-2" points="532.14 96.04 513.27 162.08 498.22 162.08 497.86 132.05 489.28 162.08 474.93 162.08 493.8 96.04 508.15 96.04 509.29 125.77 517.78 96.04 532.14 96.04"/><polygon class="cls-2" points="573.62 96.04 569.85 109.25 559.65 109.25 544.56 162.08 527.38 162.08 542.48 109.25 532.32 109.25 536.09 96.04 573.62 96.04"/><path class="cls-2" d="m611.64,101.61c-1.07-2.31-2.82-4.06-5.31-5.22-2.48-1.16-5.48-1.75-9.03-1.75s-7.15.64-10.31,1.84c-3.17,1.24-5.86,3-8.17,5.26-2.31,2.31-4.02,4.83-5.09,7.57-1.11,2.78-2.61,7.49-4.49,14.12l-3.25,11.3c-1.93,6.8-3.12,11.55-3.59,14.25-.43,2.74-.13,5.26.9,7.57,1.07,2.31,2.82,4.02,5.31,5.18,2.52,1.16,5.52,1.75,9.03,1.75,3.77,0,7.19-.6,10.35-1.84,3.12-1.24,5.86-2.99,8.17-5.26,2.27-2.27,3.98-4.79,5.09-7.57,1.07-2.74,2.57-7.44,4.49-14.08l3.21-11.3c1.97-6.8,3.17-11.59,3.59-14.29.47-2.74.17-5.22-.9-7.53Zm-16.9,11.42l-8.64,30.33c-1.11,3.89-2.01,6.33-2.61,7.36-.64,1.07-1.54,1.58-2.7,1.58s-1.75-.47-1.8-1.37c-.04-.9.47-3.25,1.58-7.1l8.81-30.81c.94-3.42,1.75-5.48,2.44-6.16.68-.68,1.45-1.03,2.35-1.03,1.07,0,1.67.43,1.75,1.28.09.86-.3,2.82-1.2,5.9Z"/><path class="cls-1" d="m656.31,0h-12.71c-7.31,0-14.14,3.62-18.25,9.67l-39.2,57.94-17.98-.4-43.92-1.14c-1.36-.7-3.25-2.43-2.28-6.56.91-3.91,2.07-7.98,2.79-10.44.34-1.16-.53-2.32-1.73-2.32h-8.98c-3.52,0-6.94,1.24-9.63,3.51l-17.53,14.77c-3.98-.12-7.96-.24-11.94-.35l-46.29-1.45-19.88-3.23c-3.32-.55-6.74-1.07-9.92-1.65-3.23-.6-6.44-1.3-9.61-2.11-6.36-1.62-12.6-3.65-18.66-6.12-2.98-1.22-6.13-2.61-9.23-3.94l-9.34-4.03c-6.43-2.76-13.04-5.15-19.78-7.13-3.37-.99-6.76-1.89-10.19-2.69-3.41-.8-6.93-1.47-10.2-2.1l-39.92-7.67-.44-.08-.82-.02-26.35-.65-13.18-.33-6.59-.16-3.35-.08c-1.23-.03-2.46-.03-3.7,0-4.92.1-9.89.48-14.78,1.4-2.45.44-4.88,1.04-7.26,1.76-2.39.73-4.73,1.62-7.01,2.63l-.85.39c-.28.13-.58.26-.81.38l-1.48.71-2.97,1.42-5.94,2.85-11.26,5.51c-11.07,3-22.11,6.11-33.15,9.2l-8.57,2.4-8.58,2.35-.54.15-.6.18-1.19.38c-.81.24-1.52.51-2.29.76-1.5.51-2.99,1.05-4.48,1.63-2.96,1.15-5.86,2.43-8.7,3.83-5.69,2.79-11.12,6.06-16.22,9.79l-14.35,10.5c-9.39,6.81-18.85,13.51-28.36,20.14-2.63,1.07-5.28,2.11-7.95,3.09-2.87,1.04-5.75,2.05-8.64,3.05-2.89,1.01-5.78,2-8.64,3.07-1.43.53-2.86,1.08-4.27,1.64l-.53.21-.27.11-.15.06-.32.15c-.42.2-.84.41-1.25.64-.41.24-.8.53-1.19.82-1.54,1.18-2.86,2.76-3.68,4.52-1.63,3.53-1.6,7.61.23,11.08.9,1.71,2.23,3.27,3.8,4.34.39.29.79.5,1.19.73l.61.33c.13.06.15.07.2.09l.13.06,1.05.46c2.8,1.22,5.62,2.39,8.46,3.52,5.69,2.25,11.44,4.37,17.39,6.07,2.03.58,4.31-.21,5.49-2.15,1.34-2.21.6-5.09-1.5-6.58-3.25-2.31-12.99-6.97-19.81-10.17-2.4-1.13-2.11-4.64.46-5.34,6.28-1.73,14.51-4.06,16.18-4.85,2.76-1.3,5.55-2.55,8.36-3.74l.65-.28.53-.37c9.65-6.86,19.34-13.65,29.12-20.33l14.69-9.93c4.61-3.06,9.48-5.7,14.53-7.9,2.53-1.09,5.11-2.07,7.72-2.93,1.3-.43,2.62-.83,3.94-1.2.65-.18,1.35-.37,1.96-.52l.95-.23.47-.12.54-.12,8.69-1.77,8.7-1.73c11.59-2.31,23.19-4.58,34.76-6.97l.66-.14,1.09-.46,12.12-5.19,11.91-5.19c3.49-1.47,7.04-2.82,10.7-3.92,3.65-1.12,7.43-1.94,11.27-2.32.96-.08,1.92-.15,2.89-.19.45-.03,1.06-.03,1.59-.05l1.65-.04,6.59-.16,13.18-.33,25.91-.64,39.44,5.57c3.41.48,6.58.92,9.79,1.51,3.21.58,6.4,1.26,9.57,2.05,6.34,1.56,12.59,3.51,18.71,5.82l9.5,3.61c3.18,1.19,6.28,2.42,9.63,3.61,6.61,2.34,13.34,4.29,20.17,5.75,3.42.73,6.86,1.35,10.31,1.85,3.5.5,6.8.87,10.18,1.3l20.17,2.49.33.04h.18l46.64-.05c15.55.03,31.09,0,46.64.09l46.63.19,2.03.02c9.92.08,19.81,1.13,29.53,3.15l33.16,6.86c1.71.36,3.41-.65,3.93-2.32l20.75-66.81c.12-.35.21-.71.28-1.07l1.28-6.59c.56-2.68-.09-4.83-2.76-4.83h0Z"/><path class="cls-1" d="m3.08,16.14h446.98c.94,0,1.79-.64,1.98-1.56.26-1.27-.71-2.38-1.93-2.38h-206.79c-.98,0-1.77-.79-1.77-1.77s.79-1.77,1.77-1.77h13.92c.94,0,1.79-.63,1.98-1.56.26-1.27-.71-2.38-1.93-2.38H30.28c-.94,0-1.79.63-1.98,1.56-.26,1.27.71,2.38,1.93,2.38h177.5c.98,0,1.77.8,1.77,1.77s-.79,1.77-1.77,1.77H3.13c-.94,0-1.79.64-1.98,1.56-.26,1.27.71,2.38,1.93,2.38h0Z"/></svg>